<mxfile host="app.diagrams.net" modified="2023-03-06T08:49:42.617Z" agent="5.0 (Macintosh; Intel Mac OS X 10_15_7) AppleWebKit/537.36 (KHTML, like Gecko) Chrome/110.0.0.0 Safari/537.36" etag="4fxzexyw3HUNBh3MMAFo" version="20.8.20" type="github">
  <diagram name="第 1 页" id="jAH6I3IOkSeIYaJlYLmv">
    <mxGraphModel dx="1492" dy="822" grid="1" gridSize="10" guides="1" tooltips="1" connect="1" arrows="1" fold="1" page="1" pageScale="1" pageWidth="1169" pageHeight="827" math="0" shadow="0">
      <root>
        <mxCell id="0" />
        <mxCell id="1" parent="0" />
        <mxCell id="-e_T0THhtZngEHOnKHvQ-1" value="&lt;font style=&quot;font-size: 19px;&quot;&gt;定义问题&lt;/font&gt;" style="shape=step;perimeter=stepPerimeter;whiteSpace=wrap;html=1;fixedSize=1;" vertex="1" parent="1">
          <mxGeometry x="40" y="40" width="210" height="50" as="geometry" />
        </mxCell>
        <mxCell id="-e_T0THhtZngEHOnKHvQ-2" value="&lt;font style=&quot;font-size: 19px;&quot;&gt;原因分析&lt;/font&gt;" style="shape=step;perimeter=stepPerimeter;whiteSpace=wrap;html=1;fixedSize=1;" vertex="1" parent="1">
          <mxGeometry x="310" y="40" width="210" height="50" as="geometry" />
        </mxCell>
        <mxCell id="-e_T0THhtZngEHOnKHvQ-3" value="&lt;span style=&quot;font-size: 19px;&quot;&gt;制定对策并落地&lt;/span&gt;" style="shape=step;perimeter=stepPerimeter;whiteSpace=wrap;html=1;fixedSize=1;" vertex="1" parent="1">
          <mxGeometry x="585" y="40" width="290" height="50" as="geometry" />
        </mxCell>
        <mxCell id="-e_T0THhtZngEHOnKHvQ-4" value="&lt;span style=&quot;font-size: 19px;&quot;&gt;效果确认&lt;/span&gt;" style="shape=step;perimeter=stepPerimeter;whiteSpace=wrap;html=1;fixedSize=1;" vertex="1" parent="1">
          <mxGeometry x="940" y="40" width="210" height="50" as="geometry" />
        </mxCell>
        <mxCell id="-e_T0THhtZngEHOnKHvQ-6" value="人工 review 工单" style="rounded=0;whiteSpace=wrap;html=1;fontSize=15;align=center;glass=0;" vertex="1" parent="1">
          <mxGeometry x="55" y="120" width="180" height="40" as="geometry" />
        </mxCell>
        <mxCell id="-e_T0THhtZngEHOnKHvQ-8" value="工单打标，划分子类" style="rounded=0;whiteSpace=wrap;html=1;fontSize=15;align=center;glass=0;" vertex="1" parent="1">
          <mxGeometry x="55" y="180" width="180" height="40" as="geometry" />
        </mxCell>
        <mxCell id="-e_T0THhtZngEHOnKHvQ-9" value="工单根因分析" style="rounded=0;whiteSpace=wrap;html=1;fontSize=15;align=center;glass=0;" vertex="1" parent="1">
          <mxGeometry x="325" y="120" width="180" height="40" as="geometry" />
        </mxCell>
        <mxCell id="-e_T0THhtZngEHOnKHvQ-10" value="相关问题现状分析" style="rounded=0;whiteSpace=wrap;html=1;fontSize=15;align=center;glass=0;" vertex="1" parent="1">
          <mxGeometry x="325" y="180" width="180" height="40" as="geometry" />
        </mxCell>
        <mxCell id="-e_T0THhtZngEHOnKHvQ-11" value="紧急方案制定并上线" style="rounded=0;whiteSpace=wrap;html=1;fontSize=15;align=center;glass=0;" vertex="1" parent="1">
          <mxGeometry x="600" y="120" width="265" height="40" as="geometry" />
        </mxCell>
        <mxCell id="-e_T0THhtZngEHOnKHvQ-12" value="针对性方案转为产研需求" style="rounded=0;whiteSpace=wrap;html=1;fontSize=15;align=center;glass=0;" vertex="1" parent="1">
          <mxGeometry x="600" y="180" width="265" height="40" as="geometry" />
        </mxCell>
        <mxCell id="-e_T0THhtZngEHOnKHvQ-13" value="制定短、中、长期方案" style="rounded=0;whiteSpace=wrap;html=1;fontSize=15;align=center;glass=0;" vertex="1" parent="1">
          <mxGeometry x="325" y="240" width="180" height="40" as="geometry" />
        </mxCell>
        <mxCell id="-e_T0THhtZngEHOnKHvQ-14" value="新增工单复盘原因，规避再次出现" style="rounded=0;whiteSpace=wrap;html=1;fontSize=15;align=center;glass=0;" vertex="1" parent="1">
          <mxGeometry x="600" y="240" width="265" height="40" as="geometry" />
        </mxCell>
        <mxCell id="-e_T0THhtZngEHOnKHvQ-15" value="控制台添加功能解释和引导项" style="rounded=0;whiteSpace=wrap;html=1;fontSize=15;align=center;glass=0;" vertex="1" parent="1">
          <mxGeometry x="600" y="300" width="265" height="40" as="geometry" />
        </mxCell>
        <mxCell id="-e_T0THhtZngEHOnKHvQ-16" value="常见问题文档补充" style="rounded=0;whiteSpace=wrap;html=1;fontSize=15;align=center;glass=0;" vertex="1" parent="1">
          <mxGeometry x="600" y="360" width="265" height="40" as="geometry" />
        </mxCell>
        <mxCell id="-e_T0THhtZngEHOnKHvQ-17" value="其他云产品问题，共建文档并引导" style="rounded=0;whiteSpace=wrap;html=1;fontSize=15;align=center;glass=0;" vertex="1" parent="1">
          <mxGeometry x="600" y="540" width="265" height="40" as="geometry" />
        </mxCell>
        <mxCell id="-e_T0THhtZngEHOnKHvQ-18" value="添加自助诊断工具" style="rounded=0;whiteSpace=wrap;html=1;fontSize=15;align=center;glass=0;" vertex="1" parent="1">
          <mxGeometry x="600" y="420" width="265" height="40" as="geometry" />
        </mxCell>
        <mxCell id="-e_T0THhtZngEHOnKHvQ-19" value="在线工单链路整体优化" style="rounded=0;whiteSpace=wrap;html=1;fontSize=15;align=center;glass=0;" vertex="1" parent="1">
          <mxGeometry x="600" y="480" width="265" height="40" as="geometry" />
        </mxCell>
        <mxCell id="-e_T0THhtZngEHOnKHvQ-20" value="工单数量降低" style="rounded=0;whiteSpace=wrap;html=1;fontSize=15;align=center;glass=0;" vertex="1" parent="1">
          <mxGeometry x="955" y="120" width="180" height="40" as="geometry" />
        </mxCell>
        <mxCell id="-e_T0THhtZngEHOnKHvQ-21" value="问题自解决率提升" style="rounded=0;whiteSpace=wrap;html=1;fontSize=15;align=center;glass=0;" vertex="1" parent="1">
          <mxGeometry x="955" y="180" width="180" height="40" as="geometry" />
        </mxCell>
      </root>
    </mxGraphModel>
  </diagram>
</mxfile>
